<svg width="18" height="15" viewBox="0 0 18 15" fill="none" xmlns="http://www.w3.org/2000/svg">
<path d="M1 12.7002C1 13.2525 1.44772 13.7002 2 13.7002H15.8857C16.438 13.7002 16.8857 13.2525 16.8857 12.7002V9.94043C16.8857 9.66429 17.1096 9.44043 17.3857 9.44043C17.6619 9.44043 17.8857 9.66429 17.8857 9.94043V13.7002C17.8857 14.2525 17.438 14.7002 16.8857 14.7002H1C0.447715 14.7002 0 14.2525 0 13.7002V9.94043C0 9.66429 0.223858 9.44043 0.5 9.44043C0.776142 9.44043 1 9.66429 1 9.94043V12.7002Z" fill="#8F8F8F"/>
<path d="M9.29105 0.146446C9.09579 -0.0488157 8.77921 -0.0488157 8.58395 0.146446L5.40197 3.32843C5.2067 3.52369 5.2067 3.84027 5.40197 4.03553C5.59723 4.2308 5.91381 4.2308 6.10907 4.03553L8.9375 1.20711L11.7659 4.03553C11.9612 4.2308 12.2778 4.2308 12.473 4.03553C12.6683 3.84027 12.6683 3.52369 12.473 3.32843L9.29105 0.146446ZM8.9375 12.5L9.4375 12.5L9.4375 0.5L8.9375 0.5L8.4375 0.5L8.4375 12.5L8.9375 12.5Z" fill="#8F8F8F"/>
</svg>
